# xmcd
#
# Track frame offsets:
#	150
#	15368
#	29948
#	41222
#	53013
#	60852
#	74862
#	94992
#	107339
#
# Disc length: 1730 seconds
#
# Revision: 1
# Processed by: cddbd v1.5.2PL0 Copyright (c) Steve Scherf et al.
# Submitted via: audiograbber 1.83.01
#
DISCID=7806c009
DTITLE=Brian Fitzpatrick And The Band Of Brothers - Worse For Wear
DYEAR=2008
DGENRE=Country Rock
TTITLE0=Walkin' On
TTITLE1=My Liver's Killing Me
TTITLE2=Laughing Out Loud (Rain's Coming Down)
TTITLE3=Faith
TTITLE4=Two
TTITLE5=Jesus, He's A Friend Of Mine
TTITLE6=Carrie With The Broken Heart
TTITLE7=Bound To Fall
TTITLE8=Hey Mary
EXTD=
EXTT0=
EXTT1=
EXTT2=
EXTT3=
EXTT4=
EXTT5=
EXTT6=
EXTT7=
EXTT8=
PLAYORDER=
